<svg width="650" height="650" viewBox="0 0 650 650" fill="none" xmlns="http://www.w3.org/2000/svg">
<path d="M481.5 253C481.5 298.578 450.018 333.5 413.5 333.5C376.982 333.5 345.5 298.578 345.5 253C345.5 207.422 376.982 172.5 413.5 172.5C450.018 172.5 481.5 207.422 481.5 253Z" stroke="black" stroke-width="15"/>
<path d="M253.5 242.5C253.5 278.411 228.736 305.5 200.5 305.5C172.264 305.5 147.5 278.411 147.5 242.5C147.5 206.589 172.264 179.5 200.5 179.5C228.736 179.5 253.5 206.589 253.5 242.5Z" stroke="black" stroke-width="15"/>
<path d="M414 372.5C456.11 372.5 494.306 382.377 523.166 398.389C552.139 414.463 570.935 436.232 576.061 459.711C576.377 461.158 575.984 462.418 574.995 463.482C573.929 464.627 572.159 465.499 570.044 465.499C543.289 465.499 483.484 465.5 414 465.5C344.515 465.5 284.711 465.499 257.956 465.499C255.841 465.499 254.071 464.627 253.005 463.482C252.016 462.418 251.623 461.158 251.939 459.711C257.065 436.232 275.861 414.463 304.834 398.389C333.694 382.377 371.89 372.5 414 372.5Z" stroke="black" stroke-width="15"/>
<path d="M201 419C125.337 419 64 418.999 64 418.999M201 419C214.732 419 227.993 419 240.5 419M201 419L64 418.999M64 418.999C64 370.951 125.337 332 201 332C243.721 332 281.875 344.418 307 363.879" stroke="black" stroke-width="15" stroke-linecap="round"/>
</svg>
